<svg width="62" height="60" viewBox="0 0 62 60" fill="none" xmlns="http://www.w3.org/2000/svg">
<g clip-path="url(#clip0_237_362)">
<path d="M60.9607 22.0993V51.5907C60.9607 53.9322 58.9924 55.8372 56.5716 55.8372H42.2965L43.9208 57.5279H46.3743C46.9371 57.5279 47.3938 57.9684 47.3938 58.514C47.3938 59.0583 46.9371 59.5 46.3743 59.5H16.2937C15.7296 59.5 15.2742 59.0583 15.2742 58.514C15.2742 57.9684 15.7296 57.5279 16.2937 57.5279H18.7471L20.3701 55.8372H6.09641C3.67555 55.8372 1.70596 53.9322 1.70596 51.5907V22.0993C1.70596 19.7578 3.67555 17.8528 6.09641 17.8528H18.6479C18.1382 16.4671 17.8799 15.013 17.8799 13.5116C17.8799 6.33729 23.9151 0.5 31.334 0.5C38.7515 0.5 44.7853 6.33729 44.7853 13.5116C44.7853 15.013 44.5284 16.4671 44.0187 17.8528H56.5716C58.9924 17.8528 60.9607 19.7578 60.9607 22.0993ZM58.9218 50.5009V23.1892H50.7824C50.9578 24.2173 51.0475 25.2625 51.0475 26.309C51.0475 36.8227 42.2041 45.3774 31.334 45.3774C20.4625 45.3774 11.6191 36.8227 11.6191 26.309C11.6191 25.2625 11.7088 24.2173 11.8828 23.1892H3.74487V50.5009H58.9218ZM3.92973 21.2171H58.7383C58.3808 20.3994 57.5448 19.8248 56.5716 19.8248H6.09641C5.12317 19.8248 4.28586 20.3994 3.92973 21.2171ZM58.7383 52.4729H3.92973C4.28586 53.2907 5.12317 53.8652 6.09641 53.8652H56.5716C57.5448 53.8652 58.3808 53.2907 58.7383 52.4729ZM49.0086 26.309C49.0086 25.2611 48.908 24.2146 48.7136 23.1892H45.7749C46.01 24.2094 46.131 25.2533 46.131 26.309C46.131 34.1998 39.4937 40.6208 31.334 40.6208C23.1743 40.6208 16.5356 34.1998 16.5356 26.309C16.5356 25.2533 16.6566 24.2094 16.8917 23.1892H13.953C13.7586 24.2146 13.658 25.2611 13.658 26.309C13.658 35.7354 21.5867 43.4054 31.334 43.4054C41.08 43.4054 49.0086 35.7354 49.0086 26.309ZM44.0921 26.309C44.0921 25.2506 43.9521 24.2041 43.6789 23.1892H32.3534V25.4281C33.2438 25.6135 34.0607 26.0408 34.7172 26.6784C35.6198 27.5514 36.1173 28.7136 36.1173 29.9507C36.1173 31.1878 35.6198 32.35 34.7159 33.2243C34.0593 33.8606 33.2438 34.2879 32.3534 34.4733V35.2792C32.3534 35.8235 31.8967 36.2652 31.334 36.2652C30.7713 36.2652 30.3145 35.8235 30.3145 35.2792V34.4733C29.4256 34.2879 28.6087 33.8606 27.9494 33.2243C27.0469 32.35 26.5494 31.1878 26.5494 29.9507C26.5494 29.4064 27.0047 28.9647 27.5688 28.9647C28.1315 28.9647 28.5883 29.4064 28.5883 29.9507C28.5883 30.6606 28.8737 31.3272 29.3916 31.8294C29.6594 32.0884 29.9734 32.2856 30.3145 32.4171V27.1885C29.4256 27.0031 28.6087 26.5759 27.9494 25.9395C27.1746 25.1902 26.7002 24.2278 26.5806 23.1892H18.9877C18.7145 24.2041 18.5745 25.2506 18.5745 26.309C18.5745 33.1126 24.2984 38.6488 31.334 38.6488C38.3696 38.6488 44.0921 33.1126 44.0921 26.309ZM41.8303 17.8528C42.4379 16.4842 42.7464 15.0262 42.7464 13.5116C42.7464 7.42455 37.6274 2.47206 31.334 2.47206C25.0406 2.47206 19.9188 7.42455 19.9188 13.5116C19.9188 15.0262 20.2274 16.4842 20.8363 17.8528H22.1915C21.5078 16.5131 21.1503 15.0406 21.1503 13.5116C21.1503 8.08059 25.7188 3.66186 31.334 3.66186C36.9478 3.66186 41.5163 8.08059 41.5163 13.5116C41.5163 15.0406 41.1588 16.5131 40.4764 17.8528H41.8303ZM41.1371 57.5279L39.5141 55.8372H23.1539L21.5296 57.5279H41.1371ZM38.1276 17.8528C39.0112 16.5657 39.4774 15.0761 39.4774 13.5116C39.4774 9.16785 35.8237 5.63392 31.334 5.63392C26.843 5.63392 23.1892 9.16785 23.1892 13.5116C23.1892 15.0761 23.6555 16.567 24.539 17.8528H28.591C28.1859 17.3124 27.9453 16.6498 27.9453 15.9333C27.9453 15.4613 28.3409 15.0788 28.8289 15.0788C29.3168 15.0788 29.7124 15.4613 29.7124 15.9333C29.7124 16.4829 30.0073 16.9654 30.4505 17.2454V14.2518C29.0096 13.8758 27.9453 12.6005 27.9453 11.0886C27.9453 9.57804 29.0096 8.30277 30.4505 7.92545V7.54419C30.4505 7.07221 30.846 6.68963 31.334 6.68963C31.822 6.68963 32.2175 7.07221 32.2175 7.54419V7.92677C33.6583 8.30277 34.7213 9.57804 34.7213 11.0886C34.7213 11.5606 34.3257 11.9432 33.8378 11.9432C33.3498 11.9432 32.9542 11.5606 32.9542 11.0886C32.9542 10.5404 32.6606 10.0566 32.2175 9.77656V12.7701C33.6583 13.1475 34.7213 14.4227 34.7213 15.9333C34.7213 16.6498 34.4821 17.3124 34.077 17.8528H38.1276ZM34.0784 29.9507C34.0784 29.2408 33.7929 28.5729 33.275 28.072C33.0073 27.813 32.6946 27.6158 32.3534 27.4843V32.4171C32.6946 32.2856 33.0073 32.0884 33.2737 31.8307C33.7929 31.3272 34.0784 30.6606 34.0784 29.9507ZM32.9542 15.9333C32.9542 15.3838 32.6606 14.9013 32.2175 14.6212V17.2454C32.6606 16.9654 32.9542 16.4829 32.9542 15.9333ZM30.4505 12.402V9.77656C30.0073 10.0566 29.7124 10.5404 29.7124 11.0886C29.7124 11.6382 30.0073 12.122 30.4505 12.402ZM30.3145 25.1323V23.1892H28.6413C28.7459 23.6993 29.0028 24.1686 29.3916 24.5446C29.6594 24.8036 29.9734 25.0008 30.3145 25.1323Z" fill="black"/>
<path d="M58.7382 21.217H3.92972C4.28585 20.3992 5.12316 19.8247 6.0964 19.8247H56.5716C57.5448 19.8247 58.3808 20.3992 58.7382 21.217Z" fill="#3DD0F2"/>
<path d="M3.92972 52.4731H58.7382C58.3808 53.2909 57.5448 53.8654 56.5716 53.8654H6.0964C5.12316 53.8654 4.28585 53.2909 3.92972 52.4731Z" fill="#3DD0F2"/>
<path d="M48.7136 23.189C48.908 24.2144 49.0086 25.2609 49.0086 26.3088C49.0086 35.7352 41.08 43.4052 31.334 43.4052C21.5866 43.4052 13.658 35.7352 13.658 26.3088C13.658 25.2609 13.7586 24.2144 13.953 23.189H16.8917C16.6566 24.2092 16.5356 25.2531 16.5356 26.3088C16.5356 34.1996 23.1743 40.6206 31.334 40.6206C39.4937 40.6206 46.131 34.1996 46.131 26.3088C46.131 25.2531 46.01 24.2092 45.7749 23.189H48.7136Z" fill="#F48C6C"/>
<path d="M43.6789 23.189C43.9521 24.2039 44.0921 25.2504 44.0921 26.3088C44.0921 33.1124 38.3696 38.6486 31.334 38.6486C24.2984 38.6486 18.5745 33.1124 18.5745 26.3088C18.5745 25.2504 18.7145 24.2039 18.9877 23.189H26.5806C26.7002 24.2276 27.1746 25.1899 27.9494 25.9393C28.6087 26.5756 29.4256 27.0029 30.3145 27.1883V32.4169C29.9734 32.2854 29.6594 32.0882 29.3916 31.8292C28.8737 31.327 28.5883 30.6604 28.5883 29.9505C28.5883 29.4062 28.1316 28.9645 27.5688 28.9645C27.0047 28.9645 26.5494 29.4062 26.5494 29.9505C26.5494 31.1876 27.0469 32.3498 27.9494 33.2241C28.6087 33.8604 29.4256 34.2877 30.3145 34.4731V35.279C30.3145 35.8233 30.7713 36.265 31.334 36.265C31.8967 36.265 32.3535 35.8233 32.3535 35.279V34.4731C33.2438 34.2877 34.0593 33.8604 34.7159 33.2241C35.6198 32.3498 36.1173 31.1876 36.1173 29.9505C36.1173 28.7134 35.6198 27.5512 34.7172 26.6782C34.0607 26.0406 33.2438 25.6133 32.3535 25.4279V23.189H43.6789Z" fill="white"/>
<path d="M42.7464 13.5117C42.7464 15.0263 42.4379 16.4843 41.8303 17.8529H40.4764C41.1588 16.5132 41.5163 15.0407 41.5163 13.5117C41.5163 8.0807 36.9478 3.66198 31.334 3.66198C25.7188 3.66198 21.1503 8.0807 21.1503 13.5117C21.1503 15.0407 21.5078 16.5132 22.1915 17.8529H20.8363C20.2274 16.4843 19.9188 15.0263 19.9188 13.5117C19.9188 7.42466 25.0406 2.47217 31.334 2.47217C37.6274 2.47217 42.7464 7.42466 42.7464 13.5117Z" fill="#F48C6C"/>
<path d="M39.5141 55.8374L41.1371 57.5281H21.5296L23.1539 55.8374H39.5141Z" fill="#3DD0F2"/>
<path d="M39.4774 13.5115C39.4774 15.076 39.0112 16.5656 38.1276 17.8527H34.077C34.4821 17.3123 34.7213 16.6497 34.7213 15.9332C34.7213 14.4226 33.6583 13.1473 32.2175 12.77V9.77642C32.6606 10.0565 32.9542 10.5403 32.9542 11.0885C32.9542 11.5605 33.3498 11.9431 33.8378 11.9431C34.3257 11.9431 34.7213 11.5605 34.7213 11.0885C34.7213 9.5779 33.6583 8.30264 32.2175 7.92663V7.54406C32.2175 7.07208 31.822 6.6895 31.334 6.6895C30.846 6.6895 30.4505 7.07208 30.4505 7.54406V7.92532C29.0096 8.30264 27.9453 9.5779 27.9453 11.0885C27.9453 12.6004 29.0096 13.8757 30.4505 14.2517V17.2453C30.0073 16.9652 29.7124 16.4827 29.7124 15.9332C29.7124 15.4612 29.3168 15.0786 28.8289 15.0786C28.3409 15.0786 27.9453 15.4612 27.9453 15.9332C27.9453 16.6497 28.1859 17.3123 28.591 17.8527H24.539C23.6555 16.5669 23.1892 15.076 23.1892 13.5115C23.1892 9.16772 26.843 5.63379 31.334 5.63379C35.8237 5.63379 39.4774 9.16772 39.4774 13.5115Z" fill="white"/>
<path d="M33.275 28.072C33.7929 28.573 34.0784 29.2408 34.0784 29.9508C34.0784 30.6607 33.7929 31.3273 33.2737 31.8308C33.0073 32.0885 32.6946 32.2857 32.3535 32.4171V27.4844C32.6946 27.6158 33.0073 27.8131 33.275 28.072Z" fill="white"/>
<path d="M32.2175 14.6211C32.6607 14.9011 32.9543 15.3836 32.9543 15.9332C32.9543 16.4827 32.6607 16.9652 32.2175 17.2452V14.6211Z" fill="white"/>
<path d="M30.4505 9.77637V12.4018C30.0073 12.1218 29.7124 11.638 29.7124 11.0884C29.7124 10.5402 30.0073 10.0564 30.4505 9.77637Z" fill="white"/>
<path d="M30.3145 23.189V25.1321C29.9734 25.0006 29.6594 24.8034 29.3916 24.5444C29.0028 24.1684 28.7459 23.6991 28.6413 23.189H30.3145Z" fill="white"/>
</g>
<defs>
<clipPath id="clip0_237_362">
<rect width="61" height="59" fill="white" transform="translate(0.833313 0.5)"/>
</clipPath>
</defs>
</svg>
