<svg width="412" height="86" viewBox="0 0 412 86" fill="none" xmlns="http://www.w3.org/2000/svg">
<g clip-path="url(#clip0_244_568)">
<path d="M0 0H412V86H30C13.4315 86 0 72.5685 0 56V0Z" fill="#086BC8"/>
<circle cx="334.018" cy="-22.9824" r="108.356" transform="rotate(30 334.018 -22.9824)" fill="url(#paint0_linear_244_568)"/>
<path d="M139.08 35V28.904L138.96 27.944H140.784L143.496 32.744L146.304 27.944H147.924V35H146.34V30.524H146.208L145.74 31.568L144.228 34.28H142.776L141.264 31.568L140.784 30.524H140.664V35H139.08ZM149.847 35V27.944H151.431V35H149.847ZM153.471 35V28.904L153.351 27.944H155.079L159.159 32.216L159.627 32.864H159.759V27.944H161.343V35H159.819L155.643 30.656L155.175 30.092H155.055V35H153.471ZM163.265 35V27.944H164.849V35H163.265Z" fill="white"/>
<rect width="115" height="22" transform="translate(172 20)" fill="white" fill-opacity="0.21"/>
<path d="M190.484 35.12C190.092 35.12 189.752 35.04 189.464 34.88C189.176 34.72 188.892 34.504 188.612 34.232C188.308 33.912 187.94 33.544 187.508 33.128C187.308 32.92 187.104 32.748 186.896 32.612C186.688 32.476 186.452 32.372 186.188 32.3C185.932 32.228 185.612 32.192 185.228 32.192H184.664V35H183.08V28.904L182.96 27.944H184.664V31.016H185.336C185.496 31.016 185.628 30.996 185.732 30.956C185.836 30.916 185.932 30.852 186.02 30.764C186.244 30.54 186.5 30.26 186.788 29.924C187.076 29.588 187.356 29.244 187.628 28.892C187.908 28.532 188.148 28.216 188.348 27.944H190.292L189.8 28.664C189.576 28.896 189.336 29.148 189.08 29.42C188.824 29.692 188.572 29.96 188.324 30.224C188.076 30.48 187.852 30.708 187.652 30.908C187.452 31.1 187.304 31.24 187.208 31.328C187.424 31.4 187.62 31.492 187.796 31.604C187.98 31.716 188.204 31.88 188.468 32.096C188.668 32.256 188.86 32.42 189.044 32.588C189.236 32.756 189.456 32.956 189.704 33.188C189.984 33.444 190.248 33.632 190.496 33.752C190.744 33.872 190.952 33.948 191.12 33.98C191.296 34.012 191.408 34.028 191.456 34.028L191.216 35C191.192 35.024 191.12 35.048 191 35.072C190.88 35.104 190.708 35.12 190.484 35.12ZM191.574 35L195.09 27.944H197.454L200.958 35H199.11L198.402 33.476H194.106L193.326 35H191.574ZM194.538 32.3H197.958L196.314 29.024H196.194L194.538 32.3ZM203.265 35C202.721 35 202.321 34.976 202.065 34.928C201.809 34.88 201.681 34.824 201.681 34.76L202.161 33.716C202.345 33.748 202.801 33.78 203.529 33.812C204.265 33.836 205.273 33.848 206.553 33.848H206.781C207.125 33.848 207.369 33.788 207.513 33.668C207.657 33.54 207.729 33.328 207.729 33.032V32.792C207.729 32.512 207.669 32.312 207.549 32.192C207.437 32.072 207.181 32.012 206.781 32.012H203.997C203.189 32.012 202.601 31.864 202.233 31.568C201.865 31.264 201.681 30.772 201.681 30.092V29.9C201.681 29.548 201.745 29.224 201.873 28.928C202.009 28.632 202.237 28.396 202.557 28.22C202.877 28.036 203.317 27.944 203.877 27.944H207.141C207.685 27.944 208.125 27.972 208.461 28.028C208.797 28.084 208.965 28.144 208.965 28.208L208.725 29.216C208.517 29.192 208.045 29.168 207.309 29.144C206.573 29.112 205.585 29.096 204.345 29.096L204.213 29.084C203.845 29.084 203.597 29.16 203.469 29.312C203.341 29.456 203.273 29.64 203.265 29.864V30.068C203.265 30.332 203.337 30.532 203.481 30.668C203.633 30.796 203.881 30.86 204.225 30.86H206.889C207.401 30.86 207.837 30.912 208.197 31.016C208.557 31.12 208.833 31.312 209.025 31.592C209.217 31.864 209.313 32.268 209.313 32.804V32.996C209.313 33.596 209.157 34.08 208.845 34.448C208.541 34.816 208.009 35 207.249 35H203.265ZM210.991 35V27.944H212.575V35H210.991ZM222.163 35.12C221.843 35.12 221.527 35.072 221.215 34.976C220.911 34.872 220.563 34.624 220.171 34.232L219.307 33.368C218.955 33.008 218.567 32.744 218.143 32.576C217.727 32.408 217.203 32.324 216.571 32.324H216.199V35H214.615V28.904L214.495 27.932H219.811C220.323 27.932 220.723 28 221.011 28.136C221.307 28.272 221.523 28.452 221.659 28.676C221.803 28.892 221.895 29.124 221.935 29.372C221.975 29.62 221.995 29.856 221.995 30.08V30.308C221.995 30.484 221.971 30.68 221.923 30.896C221.875 31.112 221.783 31.324 221.647 31.532C221.511 31.74 221.315 31.916 221.059 32.06C220.811 32.204 220.483 32.288 220.075 32.312C220.179 32.368 220.311 32.456 220.471 32.576C220.631 32.688 220.795 32.812 220.963 32.948C221.139 33.084 221.299 33.208 221.443 33.32C221.587 33.432 221.699 33.512 221.779 33.56C222.067 33.728 222.323 33.844 222.547 33.908C222.771 33.972 222.955 34.008 223.099 34.016C223.243 34.024 223.327 34.028 223.351 34.028L223.111 35C223.039 35.024 222.919 35.048 222.751 35.072C222.583 35.104 222.387 35.12 222.163 35.12ZM217.999 31.232C218.303 31.232 218.575 31.228 218.815 31.22C219.055 31.204 219.271 31.188 219.463 31.172C219.815 31.132 220.059 31.036 220.195 30.884C220.339 30.724 220.411 30.52 220.411 30.272V29.996C220.411 29.74 220.343 29.524 220.207 29.348C220.071 29.172 219.827 29.084 219.475 29.084H216.199V31.172C216.551 31.196 216.875 31.212 217.171 31.22C217.467 31.228 217.743 31.232 217.999 31.232ZM227.189 35V28.904L227.069 27.944H232.637C233.285 27.944 233.781 28.024 234.125 28.184C234.477 28.344 234.721 28.584 234.857 28.904C234.993 29.216 235.061 29.608 235.061 30.08V32.852C235.061 33.332 234.993 33.732 234.857 34.052C234.729 34.364 234.489 34.6 234.137 34.76C233.793 34.92 233.293 35 232.637 35H227.189ZM228.773 33.848H232.541C233.157 33.848 233.469 33.564 233.477 32.996V29.936C233.477 29.704 233.409 29.508 233.273 29.348C233.137 29.18 232.893 29.096 232.541 29.096H228.773V33.848ZM236.737 35V27.944H238.321V35H236.737ZM242.317 35C241.749 35 241.305 34.92 240.985 34.76C240.665 34.6 240.441 34.36 240.313 34.04C240.185 33.72 240.121 33.324 240.121 32.852V30.176C240.121 29.408 240.293 28.844 240.637 28.484C240.981 28.116 241.541 27.932 242.317 27.932H245.929C246.481 27.932 246.901 27.964 247.189 28.028C247.485 28.084 247.633 28.144 247.633 28.208L247.393 29.204C247.257 29.18 246.853 29.156 246.181 29.132C245.517 29.1 244.549 29.084 243.277 29.084H242.665C242.025 29.084 241.705 29.368 241.705 29.936V32.996C241.705 33.268 241.773 33.48 241.909 33.632C242.053 33.776 242.305 33.848 242.665 33.848H243.157C243.925 33.848 244.573 33.844 245.101 33.836C245.629 33.82 246.065 33.808 246.409 33.8V32.168L245.689 32.18L244.117 32.3V31.124H247.981V34.496L248.101 34.748C248.101 34.812 247.933 34.872 247.597 34.928C247.261 34.976 246.693 35 245.893 35H242.317ZM249.78 35V27.944H251.364V35H249.78ZM255.696 35L255.684 29.084H252.564V27.932H260.412V29.084H257.28V35H255.696ZM259.215 35L262.731 27.944H265.095L268.599 35H266.751L266.043 33.476H261.747L260.967 35H259.215ZM262.179 32.3H265.599L263.955 29.024H263.835L262.179 32.3ZM269.562 35L269.682 34.04V27.944H271.266V33.848H276.234L276.714 34.868C276.714 34.9 276.606 34.932 276.39 34.964C276.174 34.988 275.802 35 275.274 35H269.562Z" fill="white"/>
</g>
<defs>
<linearGradient id="paint0_linear_244_568" x1="334.018" y1="-131.339" x2="334.018" y2="85.374" gradientUnits="userSpaceOnUse">
<stop stop-color="#40A3FF"/>
<stop offset="1" stop-color="#086BC8"/>
</linearGradient>
<clipPath id="clip0_244_568">
<rect width="412" height="86" fill="white"/>
</clipPath>
</defs>
</svg>
