<svg width="62" height="62" viewBox="0 0 62 62" fill="none" xmlns="http://www.w3.org/2000/svg">
<path d="M54.2846 36.1086L49.8621 32.9061C49.9383 32.2961 49.9383 31.6098 49.9383 30.9998C49.9383 30.3136 49.9383 29.7036 49.8621 29.0936L54.2846 25.8911C55.0471 25.4336 55.2758 24.5186 54.8183 23.8323L49.4046 14.6061C48.9471 13.8436 48.0321 13.6148 47.2696 14.0723L42.2371 16.2836C41.1696 15.5211 40.0258 14.9111 38.8058 14.3773L38.3483 8.88731C38.3483 8.04856 37.6621 7.3623 36.8233 7.3623H25.9958C25.1571 7.3623 24.4708 8.04856 24.4708 8.88731L23.9371 14.3011C22.7171 14.8348 21.5733 15.4448 20.5058 16.2073L15.4733 13.9961C14.7108 13.5386 13.7958 13.8436 13.3383 14.5298L8.00082 23.8323C7.54332 24.5948 7.84832 25.5098 8.53457 25.8911L12.9571 29.0936C12.8808 29.7036 12.8808 30.3898 12.8808 30.9998C12.8808 31.6098 12.8808 32.2961 12.9571 32.9061L8.53457 36.1086C7.77207 36.5661 7.54332 37.4811 8.00082 38.1673L13.4146 47.3936C13.8721 48.1561 14.7871 48.3848 15.5496 47.9273L20.5821 45.7161C21.6496 46.4786 22.7933 47.0886 24.0133 47.6223L24.4708 53.1123C24.4708 53.9511 25.1571 54.6373 25.9958 54.6373H36.8233C37.6621 54.6373 38.3483 53.9511 38.3483 53.1123L38.8821 47.6986C40.1021 47.1648 41.2458 46.5548 42.3133 45.7923L47.3458 48.0036C48.1083 48.4611 49.0233 48.1561 49.4808 47.4698L54.8946 38.2436C55.2758 37.4811 54.9708 36.5661 54.2846 36.1086ZM31.4096 39.9973C26.3771 39.9973 22.2596 35.9561 22.2596 30.9998C22.2596 26.0436 26.3771 22.0023 31.4096 22.0023C36.4421 22.0023 40.5596 26.0436 40.5596 30.9998C40.5596 35.9561 36.4421 39.9973 31.4096 39.9973Z" fill="#FAC546"/>
<path d="M36.8233 55.4001H25.9958C24.7758 55.4001 23.7083 54.4088 23.7083 53.1888L23.1746 48.3088C22.1833 47.8513 21.2683 47.3176 20.4296 46.7076L15.8546 48.7663C14.7871 49.3763 13.3383 48.9951 12.7283 47.9276L7.31455 38.5488C7.00955 38.0151 6.9333 37.4051 7.0858 36.7951C7.2383 36.1851 7.61955 35.7276 8.1533 35.4226L12.1946 32.5251C12.1183 31.9913 12.1183 31.4576 12.1183 30.9238C12.1183 30.3901 12.1183 29.8563 12.1946 29.3226L8.1533 26.4251C7.61955 26.1201 7.2383 25.6626 7.0858 25.0526C6.9333 24.4426 7.00955 23.8326 7.31455 23.2988L12.7283 14.0726C13.3383 13.0051 14.7108 12.6238 15.8546 13.2338L20.4296 15.2926C21.2683 14.6826 22.2596 14.1488 23.1746 13.6913L23.7083 8.81135C23.7083 7.59135 24.6996 6.6001 25.9958 6.6001H36.8233C38.0433 6.6001 39.1108 7.59135 39.1108 8.81135L39.6446 13.6913C40.6358 14.1488 41.5508 14.6826 42.3895 15.2926L46.9646 13.2338C48.0321 12.6238 49.4808 13.0051 50.0908 14.0726L55.5046 23.2988C55.8096 23.8326 55.8858 24.4426 55.7333 25.0526C55.5808 25.6626 55.1996 26.1201 54.6658 26.4251L50.6246 29.3226C50.7008 29.8563 50.7008 30.3901 50.7008 30.9238C50.7008 31.4576 50.7008 31.9913 50.6246 32.5251L54.6658 35.4226C55.1996 35.7276 55.5808 36.1851 55.7333 36.7951C55.8858 37.4051 55.8096 38.0151 55.5046 38.5488L50.0908 47.7751C49.4808 48.8426 48.1083 49.2238 46.9646 48.6138L42.3895 46.5551C41.5508 47.1651 40.5596 47.6988 39.6446 48.1563L39.1108 53.0363C39.1108 54.4088 38.0433 55.4001 36.8233 55.4001ZM20.5058 45.0301C20.6583 45.0301 20.8108 45.1063 20.9633 45.1826C21.9546 45.9451 23.0983 46.5551 24.2421 47.0126C24.4708 47.0888 24.6996 47.3938 24.6996 47.6226L25.2333 53.0363V53.1126C25.2333 53.5701 25.6146 53.8751 25.9958 53.8751H36.8233C37.2808 53.8751 37.5858 53.5701 37.5858 53.1126V53.0363L38.1196 47.6226C38.1196 47.3176 38.3483 47.0888 38.5771 47.0126C39.7208 46.4788 40.7883 45.8688 41.8558 45.1826C42.0846 45.0301 42.3896 45.0301 42.6183 45.1063L47.6508 47.3176H47.7271C48.1083 47.5463 48.5658 47.3938 48.7946 47.0126L54.2083 37.7863C54.2846 37.6338 54.3608 37.4051 54.2846 37.2526C54.2083 37.0238 54.1321 36.8713 53.9033 36.7951C53.9033 36.7951 53.827 36.7951 53.827 36.7188L49.4046 33.5163C49.1758 33.3638 49.0233 33.0588 49.0996 32.8301C49.1758 32.2201 49.1758 31.6101 49.1758 31.0001C49.1758 30.3901 49.1758 29.7801 49.0996 29.1701C49.0996 28.8651 49.1758 28.6363 49.4046 28.4838L53.827 25.2813C53.827 25.2813 53.9033 25.2813 53.9033 25.2051C54.0558 25.1288 54.2083 24.9001 54.2846 24.7476C54.3608 24.5188 54.2846 24.3663 54.2083 24.2138L48.7946 14.9876C48.5658 14.6063 48.1083 14.5301 47.7271 14.6826H47.6508L42.6183 16.8938C42.3896 16.9701 42.0846 16.9701 41.8558 16.8176C40.8646 16.0551 39.7208 15.4451 38.5771 14.9876C38.3483 14.9113 38.1196 14.6063 38.1196 14.3776L37.5858 8.96385V8.8876C37.5858 8.4301 37.2046 8.1251 36.8233 8.1251H25.9958C25.5383 8.1251 25.2333 8.4301 25.2333 8.8876V8.96385L24.6996 14.3776C24.6996 14.6826 24.4708 14.9113 24.2421 14.9876C23.0983 15.5213 22.0308 16.1313 20.9633 16.8176C20.7346 16.9701 20.4296 16.9701 20.2008 16.8938L15.1683 14.6826H15.0921C14.7108 14.4538 14.2533 14.6063 14.0246 14.9876L8.6108 24.2138C8.53455 24.3663 8.4583 24.5951 8.53455 24.7476C8.6108 24.9763 8.68705 25.1288 8.9158 25.2051C8.9158 25.2051 8.99205 25.2051 8.99205 25.2813L13.4146 28.4838C13.6433 28.6363 13.7958 28.9413 13.7196 29.1701C13.6433 29.7801 13.6433 30.3901 13.6433 31.0001C13.6433 31.6101 13.6433 32.2201 13.7196 32.8301C13.7196 33.1351 13.6433 33.3638 13.4146 33.5163L8.99205 36.7188C8.99205 36.7188 8.9158 36.7188 8.9158 36.7951C8.7633 36.8713 8.6108 37.1001 8.53455 37.2526C8.4583 37.4813 8.53455 37.6338 8.6108 37.7863L14.0246 47.0126C14.2533 47.3938 14.7108 47.4701 15.0921 47.3176H15.1683L20.2008 45.1063C20.2771 45.0301 20.3533 45.0301 20.5058 45.0301ZM31.4096 40.7601C25.9196 40.7601 21.4971 36.3376 21.4971 31.0001C21.4971 25.6626 25.9196 21.2401 31.4096 21.2401C36.8996 21.2401 41.3221 25.6626 41.3221 31.0001C41.3221 36.3376 36.8233 40.7601 31.4096 40.7601ZM31.4096 22.7651C26.7583 22.7651 23.0221 26.5013 23.0221 31.0001C23.0221 35.5751 26.7583 39.2351 31.4096 39.2351C36.0608 39.2351 39.7971 35.4988 39.7971 31.0001C39.7971 26.4251 35.9846 22.7651 31.4096 22.7651Z" fill="#231C1C"/>
<path d="M31.4096 20.3252C25.4621 20.3252 20.6583 25.1289 20.6583 31.0002C20.6583 36.8714 25.4621 41.6752 31.4096 41.6752C37.3571 41.6752 42.1608 36.8714 42.1608 31.0002C42.1608 25.1289 37.2808 20.3252 31.4096 20.3252ZM31.4096 37.1002C27.9783 37.1002 25.2333 34.3552 25.2333 31.0002C25.2333 27.6452 27.9783 24.9002 31.4096 24.9002C34.8408 24.9002 37.5858 27.6452 37.5858 31.0002C37.5858 34.3552 34.7646 37.1002 31.4096 37.1002Z" fill="#E1E0A6"/>
<path d="M31.4096 42.4375C25.0808 42.4375 19.8958 37.3288 19.8958 31C19.8958 24.6713 25.0808 19.5625 31.4096 19.5625C37.7383 19.5625 42.9233 24.6713 42.9233 31C42.8471 37.3288 37.7383 42.4375 31.4096 42.4375ZM31.4096 21.0875C25.9196 21.0875 21.4208 25.51 21.4208 31C21.4208 36.49 25.9196 40.9125 31.4096 40.9125C36.8996 40.9125 41.3983 36.49 41.3983 31C41.3221 25.51 36.8996 21.0875 31.4096 21.0875ZM31.4096 37.8625C27.5971 37.8625 24.4708 34.8125 24.4708 31C24.4708 27.1875 27.5971 24.1375 31.4096 24.1375C35.2221 24.1375 38.3483 27.1875 38.3483 31C38.3483 34.8125 35.2221 37.8625 31.4096 37.8625ZM31.4096 25.6625C28.4358 25.6625 25.9958 28.0262 25.9958 31C25.9958 33.9738 28.4358 36.3375 31.4096 36.3375C34.3833 36.3375 36.8233 33.9738 36.8233 31C36.8233 28.0262 34.3833 25.6625 31.4096 25.6625Z" fill="#231C1C"/>
</svg>
