<svg width="67" height="67" viewBox="0 0 67 67" fill="none" xmlns="http://www.w3.org/2000/svg">
<path d="M54.6692 12.6532H39.2556V7.09994C39.2556 6.9249 39.186 6.75703 39.0623 6.63325C38.9385 6.50948 38.7706 6.43994 38.5956 6.43994H7.26669C7.09165 6.43994 6.92377 6.50948 6.8 6.63325C6.67623 6.75703 6.60669 6.9249 6.60669 7.09994C6.60669 7.10786 6.60669 7.11446 6.60669 7.12238V48.2839C6.6093 49.874 7.23689 51.3994 8.35406 52.5308C9.47124 53.6623 10.9884 54.3093 12.5784 54.3322C12.5863 54.3327 12.5942 54.3327 12.6021 54.3322H12.6259C12.6391 54.3322 12.651 54.3322 12.6642 54.3322C12.6774 54.3322 12.6892 54.3322 12.7024 54.3322H28.0805V59.8999C28.0805 60.075 28.15 60.2429 28.2738 60.3666C28.3975 60.4904 28.5654 60.5599 28.7404 60.5599H60.0667C60.2417 60.5599 60.4096 60.4904 60.5334 60.3666C60.6572 60.2429 60.7267 60.075 60.7267 59.8999V18.7159C60.7243 17.1097 60.0854 15.5698 58.9501 14.4335C57.8148 13.2972 56.2755 12.657 54.6692 12.6532Z" fill="#231F20"/>
<path d="M7.9267 48.2838V7.75977H37.9356V12.653H23.8763C23.8319 12.6526 23.7876 12.657 23.7443 12.6662C23.6123 12.657 23.4803 12.653 23.3483 12.653C21.7422 12.6565 20.203 13.2961 19.0674 14.4319C17.9319 15.5677 17.2926 17.1071 17.2895 18.7131C17.2895 18.7131 17.403 48.1042 17.403 48.289C17.4013 49.538 16.9067 50.7358 16.0268 51.6222C15.1469 52.5085 13.9527 53.0118 12.7038 53.0226H12.6259C11.3762 53.0114 10.1814 52.5073 9.30139 51.6199C8.42139 50.7325 7.92734 49.5335 7.9267 48.2838Z" fill="#FF8E5A"/>
<path d="M16.3984 53.0226C17.119 52.4611 17.7025 51.7433 18.105 50.9233C18.5075 50.1033 18.7183 49.2025 18.7216 48.2891C18.7216 48.1571 18.6081 18.7079 18.6081 18.7105C18.6289 17.4676 19.1372 16.2825 20.0235 15.4109C20.9098 14.5393 22.1031 14.0508 23.3463 14.0508C24.5894 14.0508 25.7827 14.5393 26.669 15.4109C27.5553 16.2825 28.0637 17.4676 28.0844 18.7105V53.0226H16.3984Z" fill="#FFBA50"/>
<path d="M59.4067 59.24H29.4005V18.716C29.4003 17.8051 29.1945 16.906 28.7984 16.0857C28.4023 15.2654 27.8261 14.5451 27.1129 13.9785H54.6692C55.9253 13.9799 57.1294 14.4795 58.0176 15.3676C58.9057 16.2558 59.4053 17.46 59.4067 18.716V59.24Z" fill="white"/>
<path d="M54.9583 49.6553H33.8462C33.6712 49.6553 33.5033 49.7248 33.3795 49.8486C33.2558 49.9724 33.1862 50.1402 33.1862 50.3153C33.1862 50.4903 33.2558 50.6582 33.3795 50.782C33.5033 50.9057 33.6712 50.9753 33.8462 50.9753H54.9583C55.1333 50.9753 55.3012 50.9057 55.425 50.782C55.5488 50.6582 55.6183 50.4903 55.6183 50.3153C55.6183 50.1402 55.5488 49.9724 55.425 49.8486C55.3012 49.7248 55.1333 49.6553 54.9583 49.6553Z" fill="#231F20"/>
<path d="M54.9583 42.3335H33.8462C33.6712 42.3335 33.5033 42.403 33.3795 42.5268C33.2558 42.6506 33.1862 42.8185 33.1862 42.9935C33.1862 43.1685 33.2558 43.3364 33.3795 43.4602C33.5033 43.584 33.6712 43.6535 33.8462 43.6535H54.9583C55.1333 43.6535 55.3012 43.584 55.425 43.4602C55.5488 43.3364 55.6183 43.1685 55.6183 42.9935C55.6183 42.8185 55.5488 42.6506 55.425 42.5268C55.3012 42.403 55.1333 42.3335 54.9583 42.3335Z" fill="#231F20"/>
<path d="M54.9583 35.0259H33.8462C33.6712 35.0259 33.5033 35.0954 33.3795 35.2192C33.2558 35.343 33.1862 35.5108 33.1862 35.6859C33.1862 35.8609 33.2558 36.0288 33.3795 36.1526C33.5033 36.2763 33.6712 36.3459 33.8462 36.3459H54.9583C55.1333 36.3459 55.3012 36.2763 55.425 36.1526C55.5488 36.0288 55.6183 35.8609 55.6183 35.6859C55.6183 35.5108 55.5488 35.343 55.425 35.2192C55.3012 35.0954 55.1333 35.0259 54.9583 35.0259Z" fill="#231F20"/>
<path d="M54.9583 27.7617H33.8462C33.6712 27.7617 33.5033 27.8313 33.3795 27.955C33.2558 28.0788 33.1862 28.2467 33.1862 28.4217C33.1862 28.5968 33.2558 28.7646 33.3795 28.8884C33.5033 29.0122 33.6712 29.0817 33.8462 29.0817H54.9583C55.1333 29.0817 55.3012 29.0122 55.425 28.8884C55.5488 28.7646 55.6183 28.5968 55.6183 28.4217C55.6183 28.2467 55.5488 28.0788 55.425 27.955C55.3012 27.8313 55.1333 27.7617 54.9583 27.7617Z" fill="#231F20"/>
<path d="M54.9583 20.4399H33.8462C33.6712 20.4399 33.5033 20.5095 33.3795 20.6333C33.2558 20.757 33.1862 20.9249 33.1862 21.0999C33.1862 21.275 33.2558 21.4429 33.3795 21.5666C33.5033 21.6904 33.6712 21.7599 33.8462 21.7599H54.9583C55.1333 21.7599 55.3012 21.6904 55.425 21.5666C55.5488 21.4429 55.6183 21.275 55.6183 21.0999C55.6183 20.9249 55.5488 20.757 55.425 20.6333C55.3012 20.5095 55.1333 20.4399 54.9583 20.4399Z" fill="#231F20"/>
</svg>
