<svg width="60" height="60" viewBox="0 0 60 60" fill="none" xmlns="http://www.w3.org/2000/svg">
<path d="M36.3609 39.821L39.837 36.3462L54.6104 51.1195L51.1343 54.5944L36.3609 39.821Z" fill="#616161"/>
<path d="M5.41666 25.0832C5.41666 30.2991 7.48867 35.3014 11.1769 38.9896C14.8651 42.6778 19.8674 44.7498 25.0833 44.7498C30.2992 44.7498 35.3015 42.6778 38.9898 38.9896C42.678 35.3014 44.75 30.2991 44.75 25.0832C44.75 19.8672 42.678 14.865 38.9898 11.1767C35.3015 7.48852 30.2992 5.4165 25.0833 5.4165C19.8674 5.4165 14.8651 7.48852 11.1769 11.1767C7.48867 14.865 5.41666 19.8672 5.41666 25.0832Z" fill="#616161"/>
<path d="M40.3864 43.939L43.8613 40.4629L54.5501 51.1517L51.074 54.6278L40.3864 43.939Z" fill="#37474F"/>
<path d="M9.10416 25.0832C9.10416 29.3211 10.7877 33.3855 13.7843 36.3822C16.781 39.3788 20.8454 41.0623 25.0833 41.0623C29.3213 41.0623 33.3856 39.3788 36.3823 36.3822C39.379 33.3855 41.0625 29.3211 41.0625 25.0832C41.0625 20.8452 39.379 16.7809 36.3823 13.7842C33.3856 10.7875 29.3213 9.104 25.0833 9.104C20.8454 9.104 16.781 10.7875 13.7843 13.7842C10.7877 16.7809 9.10416 20.8452 9.10416 25.0832Z" fill="#64B5F6"/>
<path d="M33.5646 17.9543C31.475 15.496 28.4021 14.021 25.0833 14.021C21.7646 14.021 18.6917 15.496 16.6021 17.9543C16.1104 18.446 16.2333 19.3064 16.725 19.6752C17.2167 20.1668 18.0771 20.0439 18.4458 19.5522C20.1667 17.5856 22.5021 16.4793 25.0833 16.4793C27.6646 16.4793 30 17.5856 31.7208 19.5522C31.9667 19.7981 32.3354 20.0439 32.7042 20.0439C32.95 20.0439 33.3188 19.921 33.4417 19.7981C33.9333 19.3064 33.9333 18.446 33.5646 17.9543Z" fill="#BBDEFB"/>
</svg>
