<svg width="66" height="65" viewBox="0 0 66 65" fill="none" xmlns="http://www.w3.org/2000/svg">
<path d="M16.4167 16.25V50.7812H52.9792V16.25H16.4167ZM42.8229 24.375H22.5104C22.5104 24.375 20.4792 24.375 20.4792 22.3438C20.4792 22.3438 20.4792 20.3125 22.5104 20.3125C24.5417 20.3125 42.8229 20.3125 42.8229 20.3125C42.8229 20.3125 44.8542 20.3125 44.8542 22.3438C44.8542 24.375 42.8229 24.375 42.8229 24.375Z" fill="#5FFFBA"/>
<path d="M52.9792 52.8125C52.9792 52.8125 52.9792 56.875 48.9167 56.875C39.2682 56.875 26.5729 56.875 26.5729 56.875C26.5729 56.875 22.5104 56.875 22.5104 52.8125H52.9792Z" fill="#FFD561"/>
<path d="M52.9792 12.1875H22.5104C22.5104 12.1875 22.5104 8.125 26.5729 8.125H48.9167C48.9167 8.125 52.9792 8.125 52.9792 12.1875Z" fill="#FFD561"/>
<path d="M42.8229 18.2812H22.5104C19.8698 18.2812 18.4479 20.3734 18.4479 22.3438C18.4479 24.9844 20.5401 26.4062 22.5104 26.4062H42.8229C44.7932 26.4062 46.8854 24.9844 46.8854 22.3438C46.8854 19.7031 44.7932 18.2812 42.8229 18.2812ZM22.5104 24.375C22.5104 24.375 20.4792 24.375 20.4792 22.3438C20.4792 22.3438 20.4792 20.3125 22.5104 20.3125H28.6042C34.637 20.3125 42.8229 20.3125 42.8229 20.3125C42.8229 20.3125 44.8542 20.3125 44.8542 22.3438C44.8542 24.375 42.8229 24.375 42.8229 24.375H22.5104Z" fill="#2D2220"/>
<path d="M44.8542 22.3438C44.8542 24.375 42.8229 24.375 42.8229 24.375H28.6042C27.487 24.375 26.5729 23.4609 26.5729 22.3438C26.5729 21.2266 27.487 20.3125 28.6042 20.3125C34.637 20.3125 42.8229 20.3125 42.8229 20.3125C42.8229 20.3125 44.8542 20.3125 44.8542 22.3438Z" fill="#FFD561"/>
<path d="M53.9948 34.5312C54.5636 34.5312 55.0104 34.0823 55.0104 33.5156V12.1875C55.0104 7.71875 51.3745 6.09375 48.9167 6.09375H16.4167C11.9479 6.09375 10.3229 9.72969 10.3229 12.1875V52.8125C10.3229 57.2812 13.9589 58.9062 16.4167 58.9062H48.9167C53.3854 58.9062 55.0104 55.2703 55.0104 52.8125V37.5781C55.0104 37.0094 54.5636 36.5625 53.9948 36.5625C53.4261 36.5625 52.9792 37.0094 52.9792 37.5781V52.8125C52.9792 52.8125 52.9792 56.875 48.9167 56.875C44.8542 56.875 16.4167 56.875 16.4167 56.875C16.4167 56.875 12.3542 56.875 12.3542 52.8125H45.8698C46.4386 52.8125 46.8854 52.3656 46.8854 51.7969C46.8854 51.2281 46.4386 50.7812 45.8698 50.7812H12.3542V14.2188H52.9792V33.5156C52.9792 34.0823 53.4261 34.5312 53.9948 34.5312ZM12.3542 12.1875C12.3542 12.1875 12.3542 8.125 16.4167 8.125C20.4792 8.125 48.9167 8.125 48.9167 8.125C48.9167 8.125 52.9792 8.125 52.9792 12.1875H12.3542Z" fill="#2D2220"/>
<path d="M38.7604 29.4531C38.7604 28.8925 38.3054 28.4375 37.7448 28.4375H19.4636C18.9029 28.4375 18.4479 28.8925 18.4479 29.4531C18.4479 30.0137 18.9029 30.4688 19.4636 30.4688H37.7448C38.3054 30.4688 38.7604 30.0137 38.7604 29.4531Z" fill="#2D2220"/>
<path d="M46.8854 29.4531C46.8854 28.8925 46.4304 28.4375 45.8698 28.4375H41.8073C41.2467 28.4375 40.7917 28.8925 40.7917 29.4531C40.7917 30.0137 41.2467 30.4688 41.8073 30.4688H45.8698C46.4304 30.4688 46.8854 30.0137 46.8854 29.4531Z" fill="#2D2220"/>
</svg>
